<svg width="127" height="127" viewBox="0 0 127 127" fill="none" xmlns="http://www.w3.org/2000/svg">
<path d="M93.1704 55.5328L66.8615 13.6387C66.4798 13.1029 65.9756 12.6662 65.3909 12.3648C64.8061 12.0635 64.1578 11.9062 63.5 11.9062C62.8422 11.9062 62.1939 12.0635 61.6092 12.3648C61.0244 12.6662 60.5202 13.1029 60.1385 13.6387L33.7106 55.7352C30.0421 61.6576 27.9971 68.4412 27.7812 75.4043C27.7813 84.8775 31.5445 93.9627 38.243 100.661C44.9416 107.36 54.0268 111.123 63.5 111.123C72.9732 111.123 82.0584 107.36 88.757 100.661C95.4555 93.9627 99.2188 84.8775 99.2188 75.4043C98.9912 68.3629 96.9044 61.507 93.1704 55.5328ZM63.5 103.186C56.1352 103.175 49.075 100.245 43.8673 95.037C38.6596 89.8293 35.7292 82.7692 35.7188 75.4043C35.9338 69.8551 37.6005 64.4593 40.5527 59.7556L44.2635 53.8421L84.2447 93.8233C81.6475 96.7647 78.455 99.1207 74.8787 100.735C71.3024 102.35 67.4239 103.183 63.5 103.186Z" fill="#5B869D"/>
</svg>
